<?xml version="1.0" standalone="no"?>
<!DOCTYPE svg PUBLIC "-//W3C//DTD SVG 20010904//EN"
 "http://www.w3.org/TR/2001/REC-SVG-20010904/DTD/svg10.dtd">
<svg version="1.0" xmlns="http://www.w3.org/2000/svg"
 width="1280.000000pt" height="738.000000pt" viewBox="0 0 1280.000000 738.000000"
 preserveAspectRatio="xMidYMid meet">
<metadata>
Created by potrace 1.15, written by Peter Selinger 2001-2017
</metadata>
<g transform="translate(0.000000,738.000000) scale(0.100000,-0.100000)"
fill="#000000" stroke="none">
<path d="M11461 7364 c-180 -48 -314 -200 -343 -388 l-12 -76 -1560 -1212
c-859 -666 -1574 -1224 -1591 -1240 l-30 -28 0 -254 c0 -272 3 -293 51 -315
31 -14 665 34 704 53 21 10 1437 1286 2108 1898 89 82 162 147 162 145 0 -2
-219 -445 -486 -983 -352 -708 -487 -988 -486 -1012 0 -35 13 -57 44 -73 18
-10 639 -58 748 -59 68 0 93 16 114 72 9 24 162 500 341 1058 180 558 362
1126 406 1262 l79 246 66 31 c156 73 274 254 274 421 0 43 -19 134 -35 174
-13 31 13 9 32 -27 15 -29 17 -91 19 -672 1 -711 15 -1138 60 -1863 9 -140 13
-256 10 -260 -4 -3 -48 -13 -98 -22 l-90 -16 -29 -69 c-15 -39 -28 -76 -28
-82 -1 -10 21 -13 79 -13 l80 0 0 -57 c0 -32 7 -103 15 -158 45 -302 170 -460
372 -473 64 -4 79 -1 128 22 97 48 168 161 168 269 0 48 -7 71 -41 140 -87
169 -121 180 -101 31 20 -147 -3 -219 -77 -250 -57 -24 -109 -18 -147 16 -63
55 -115 191 -130 343 -2 26 -1 47 2 47 4 0 69 -38 146 -85 124 -77 165 -93
165 -67 0 5 -59 72 -131 150 -71 78 -128 146 -125 151 3 5 35 44 71 87 35 43
64 79 62 80 -1 1 -47 -6 -102 -16 -145 -28 -143 -28 -149 22 -8 57 -33 497
-52 903 -9 189 -17 648 -21 1075 l-5 745 -23 40 c-29 51 -205 211 -272 247
-102 56 -232 72 -342 42z"/>
<path d="M7245 7125 l-25 -24 0 -1591 0 -1591 25 -24 24 -25 276 0 276 0 24
25 25 24 0 1589 0 1589 -25 27 -24 26 -276 0 -276 0 -24 -25z"/>
<path d="M4141 6917 c-17 -4 -41 -22 -54 -40 -58 -77 -1729 -2502 -1742 -2527
-8 -16 -15 -38 -15 -49 0 -25 56 -81 82 -81 10 0 117 -9 236 -20 119 -11 570
-51 1002 -90 432 -38 832 -74 890 -80 58 -6 409 -37 780 -70 371 -33 873 -78
1114 -100 523 -48 519 -47 550 -17 23 23 24 29 30 278 12 523 25 2471 16 2494
-20 54 27 48 -1458 183 -895 81 -1412 125 -1431 119z m1359 -637 c492 -28 915
-53 938 -56 l44 -6 -6 -156 c-3 -86 -11 -357 -17 -602 -18 -787 -26 -1041 -32
-1047 -6 -5 -178 9 -942 77 -121 11 -323 29 -450 40 -126 11 -480 43 -785 70
-305 27 -643 56 -750 65 -107 9 -203 19 -213 23 -14 6 83 149 565 830 l583
823 85 -5 c47 -3 488 -29 980 -56z"/>
<path d="M1990 3949 c-577 -21 -1004 -87 -1209 -185 -158 -77 -263 -230 -317
-464 -21 -93 -29 -362 -15 -506 39 -383 192 -920 408 -1429 77 -183 100 -221
137 -237 23 -10 99 -13 296 -13 307 0 368 9 489 77 99 54 182 140 312 324 223
313 364 392 684 381 163 -5 231 -21 360 -81 121 -57 217 -132 422 -329 170
-163 257 -234 341 -276 74 -38 337 -91 597 -123 186 -22 739 -16 1140 12 424
30 890 32 1115 7 193 -22 202 -22 234 9 l26 27 0 1247 0 1248 -31 26 c-17 14
-38 26 -47 26 -9 0 -55 4 -102 10 -118 13 -804 76 -1095 100 -1539 127 -2891
181 -3745 149z"/>
<path d="M9160 3764 c-36 -2 -189 -8 -340 -14 -263 -10 -945 -46 -1400 -74
-230 -14 -262 -22 -274 -69 -5 -20 -18 -1062 -28 -2155 l-3 -314 28 -24 28
-24 1030 0 c997 0 1031 1 1068 19 64 33 139 98 356 311 231 226 344 316 481
385 128 63 223 86 359 86 126 0 184 -10 278 -45 137 -51 223 -122 400 -331
195 -230 348 -374 451 -427 72 -37 290 -35 413 3 68 21 63 -69 63 1249 l0
1197 -25 23 c-26 24 -53 31 -315 75 -166 28 -479 69 -655 85 -396 36 -545 42
-1190 44 -363 2 -689 2 -725 0z"/>
<path d="M12160 1825 l-1 -695 48 6 c295 32 381 67 466 186 94 132 142 315
120 464 -27 185 -178 376 -514 648 -59 47 -109 86 -112 86 -3 0 -6 -313 -7
-695z"/>
<path d="M265 2244 c-105 -183 -173 -326 -218 -458 -36 -109 -41 -131 -41
-221 -1 -80 4 -113 22 -167 50 -145 193 -312 318 -370 89 -41 190 -40 366 3
120 30 128 34 122 53 -4 12 -92 239 -196 506 -273 697 -299 764 -302 768 -2 2
-34 -49 -71 -114z"/>
<path d="M10315 1773 c-68 -10 -155 -37 -233 -74 -478 -223 -646 -812 -356
-1250 115 -174 301 -305 509 -360 103 -26 288 -29 390 -5 319 75 558 302 647
613 19 65 23 103 23 228 0 142 -2 156 -32 250 -118 366 -451 610 -825 604 -51
-1 -106 -4 -123 -6z"/>
<path d="M2693 1706 c-244 -47 -432 -170 -572 -375 -140 -204 -180 -493 -101
-731 41 -126 100 -227 184 -317 84 -90 167 -151 278 -203 125 -58 208 -75 368
-74 116 1 147 5 225 28 296 89 521 322 596 616 29 112 31 283 5 394 -75 324
-315 569 -639 650 -93 23 -254 29 -344 12z"/>
</g>
</svg>
