<?xml version="1.0" standalone="no"?>
<!DOCTYPE svg PUBLIC "-//W3C//DTD SVG 20010904//EN"
 "http://www.w3.org/TR/2001/REC-SVG-20010904/DTD/svg10.dtd">
<svg version="1.0" xmlns="http://www.w3.org/2000/svg"
 width="1280.000000pt" height="1280.000000pt" viewBox="0 0 1280.000000 1280.000000"
 preserveAspectRatio="xMidYMid meet">
<metadata>
Created by potrace 1.15, written by Peter Selinger 2001-2017
</metadata>
<g transform="translate(0.000000,1280.000000) scale(0.100000,-0.100000)"
fill="#000000" stroke="none">
<path d="M9683 12017 c-851 -850 -815 -809 -757 -862 l27 -25 353 0 354 0 0
-1440 0 -1440 -1495 -2 -1494 -3 -23 -23 -23 -23 -3 -762 c-2 -534 0 -773 8
-800 7 -26 19 -41 36 -47 16 -6 886 -10 2319 -10 2243 0 2293 0 2316 19 l24
19 3 2256 2 2256 351 0 351 0 29 30 c24 23 28 35 23 57 -4 20 -239 261 -783
806 -681 682 -780 777 -806 777 -26 0 -126 -96 -812 -783z"/>
<path d="M781 11206 c-779 -780 -784 -784 -777 -818 5 -27 143 -169 779 -805
742 -743 774 -773 809 -773 28 0 42 6 57 26 20 26 21 38 21 375 l0 349 1440 0
1440 0 0 -1474 c0 -1050 3 -1482 11 -1505 6 -17 19 -36 29 -41 12 -6 309 -10
800 -10 l781 0 24 25 25 24 0 2304 0 2304 -23 21 -23 22 -2252 0 -2251 0 -3
361 -3 361 -24 19 c-55 44 -21 74 -860 -765z"/>
<path d="M1555 6195 l-25 -24 0 -2250 0 -2250 -361 -3 -361 -3 -19 -24 c-44
-54 -73 -22 764 -858 686 -687 786 -783 812 -783 26 0 125 95 802 772 590 590
775 781 783 807 8 30 6 36 -20 62 l-28 29 -351 0 -351 0 0 1440 0 1440 1496 2
1496 3 19 24 c18 22 19 50 19 811 l0 789 -26 20 -27 21 -2299 0 -2299 0 -24
-25z"/>
<path d="M6623 6170 c-12 -5 -26 -18 -32 -29 -15 -26 -15 -4604 -1 -4631 5
-10 24 -23 41 -29 23 -8 661 -11 2265 -11 l2234 0 0 -350 0 -351 25 -24 c16
-17 35 -25 57 -25 30 0 95 62 810 778 576 575 778 783 778 800 0 13 -6 35 -14
50 -8 15 -358 370 -778 790 -700 698 -766 762 -796 762 -22 0 -41 -9 -57 -25
l-25 -24 0 -356 0 -355 -1440 0 -1440 0 -2 1496 -3 1496 -28 24 -28 24 -772
-1 c-425 0 -782 -4 -794 -9z"/>
</g>
</svg>
